<svg version="1.1" id="Layer_1" xmlns="http://www.w3.org/2000/svg" xmlns:xlink="http://www.w3.org/1999/xlink" x="0px" y="0px"
	 width="100%" viewBox="0 0 512 512" enable-background="new 0 0 512 512" xml:space="preserve">
<path fill="#000000" opacity="1.000000" stroke="none" 
	d="
M360.000000,1.000004 
	C410.977478,1.000000 461.954956,1.000000 512.966187,1.000000 
	C512.966187,171.568741 512.966187,342.137482 512.966187,513.000000 
	C405.978760,513.000000 298.957214,513.000000 191.228989,512.645996 
	C190.866394,511.938599 191.158401,511.356750 191.562088,511.264679 
	C211.134689,506.801514 227.112030,496.769592 239.599716,480.969879 
	C250.267960,467.472229 257.222290,452.135773 257.722900,435.188995 
	C258.637268,404.234711 257.889191,373.231323 257.907257,341.767090 
	C258.045502,318.516541 258.111023,295.747253 258.504211,273.185699 
	C262.914886,294.597015 273.266724,312.061859 290.584351,325.003632 
	C313.854828,342.394135 339.605225,347.233337 367.637665,339.073425 
	C388.958557,332.867096 405.069641,320.123596 416.538086,301.078918 
	C427.456482,282.947723 431.196045,263.372162 427.725342,242.843719 
	C424.079437,221.278976 413.593567,203.247284 396.097717,189.526489 
	C383.064209,179.305222 368.468384,173.321976 352.224609,171.493668 
	C354.275818,171.087189 356.169067,171.311493 357.918610,170.909866 
	C378.548309,166.174072 395.933105,156.300613 409.215240,139.386993 
	C426.032867,117.971237 431.476562,93.504700 425.469208,67.702484 
	C417.598419,33.896282 395.936798,11.921542 361.879669,2.936029 
	C361.134674,2.739475 360.621368,1.664966 360.000000,1.000004 
z"/>
<path fill="#000000" opacity="1.000000" stroke="none" 
	d="
M154.000000,513.000000 
	C103.027351,513.000000 52.054707,513.000000 1.041029,513.000000 
	C1.041029,342.452240 1.041029,171.904434 1.041029,1.000000 
	C51.020329,1.000000 101.041504,1.000000 151.847260,1.319402 
	C151.806824,2.090036 151.032074,2.735084 150.149399,2.964013 
	C130.641525,8.023489 114.228096,18.236071 102.396713,34.439819 
	C87.616547,54.682072 81.872910,77.413086 86.935776,102.490311 
	C92.483009,129.966690 107.600464,150.336273 132.475006,162.852997 
	C140.991959,167.138672 150.768661,168.920883 159.561798,171.914856 
	C156.783539,172.478119 154.383591,172.862045 152.047607,173.485657 
	C124.040848,180.962250 103.906830,197.617691 92.795288,224.636612 
	C85.912682,241.372406 84.577133,258.641266 88.682114,276.241699 
	C93.103355,295.198181 102.482010,311.086151 117.833107,323.428192 
	C130.848480,333.892365 145.409851,340.322479 161.761673,342.493195 
	C149.541306,343.669189 138.678802,347.784729 128.420151,353.874725 
	C115.121773,361.769165 104.463226,372.260925 97.102997,385.852631 
	C87.440262,403.696259 84.677101,422.644775 87.862671,442.756439 
	C90.161102,457.267273 96.074028,470.133606 105.040474,481.253143 
	C117.133598,496.250214 132.654892,506.693726 151.808853,511.057373 
	C152.643448,511.247498 153.274261,512.332092 154.000000,513.000000 
z"/>
<path fill="#FF4D12" opacity="1.000000" stroke="none" 
	d="
M159.969803,171.846893 
	C150.768661,168.920883 140.991959,167.138672 132.475006,162.852997 
	C107.600464,150.336273 92.483009,129.966690 86.935776,102.490311 
	C81.872910,77.413086 87.616547,54.682072 102.396713,34.439819 
	C114.228096,18.236071 130.641525,8.023489 150.149399,2.964013 
	C151.032074,2.735084 151.806824,2.090036 152.315918,1.319402 
	C187.020889,1.000000 222.041794,1.000000 257.493958,1.467501 
	C257.927460,58.567387 257.929657,115.199768 257.470154,171.801331 
	C224.662231,171.795975 192.316025,171.821426 159.969803,171.846893 
z"/>
<path fill="#FF7361" opacity="1.000000" stroke="none" 
	d="
M257.931854,171.832153 
	C257.929657,115.199768 257.927460,58.567387 257.962616,1.467501 
	C291.687561,1.000000 325.375122,1.000000 359.531342,1.000004 
	C360.621368,1.664966 361.134674,2.739475 361.879669,2.936029 
	C395.936798,11.921542 417.598419,33.896282 425.469208,67.702484 
	C431.476562,93.504700 426.032867,117.971237 409.215240,139.386993 
	C395.933105,156.300613 378.548309,166.174072 357.918610,170.909866 
	C356.169067,171.311493 354.275818,171.087189 351.760925,171.566284 
	C343.381470,172.041473 335.690460,172.104050 327.535583,172.094879 
	C304.046509,172.061096 281.021240,172.099075 257.929260,172.071487 
	C257.862579,172.005920 257.931854,171.832153 257.931854,171.832153 
z"/>
<path fill="#00CF7F" opacity="1.000000" stroke="none" 
	d="
M154.468658,513.000000 
	C153.274261,512.332092 152.643448,511.247498 151.808853,511.057373 
	C132.654892,506.693726 117.133598,496.250214 105.040474,481.253143 
	C96.074028,470.133606 90.161102,457.267273 87.862671,442.756439 
	C84.677101,422.644775 87.440262,403.696259 97.102997,385.852631 
	C104.463226,372.260925 115.121773,361.769165 128.420151,353.874725 
	C138.678802,347.784729 149.541306,343.669189 162.225891,342.424561 
	C194.564011,342.102081 226.199265,342.175262 257.834503,342.248413 
	C257.889191,373.231323 258.637268,404.234711 257.722900,435.188995 
	C257.222290,452.135773 250.267960,467.472229 239.599716,480.969879 
	C227.112030,496.769592 211.134689,506.801514 191.562088,511.264679 
	C191.158401,511.356750 190.866394,511.938599 190.761139,512.645996 
	C178.979111,513.000000 166.958206,513.000000 154.468658,513.000000 
z"/>
<path fill="#B659FF" opacity="1.000000" stroke="none" 
	d="
M257.907257,341.767090 
	C226.199265,342.175262 194.564011,342.102081 162.464554,342.097595 
	C145.409851,340.322479 130.848480,333.892365 117.833107,323.428192 
	C102.482010,311.086151 93.103355,295.198181 88.682114,276.241699 
	C84.577133,258.641266 85.912682,241.372406 92.795288,224.636612 
	C103.906830,197.617691 124.040848,180.962250 152.047607,173.485657 
	C154.383591,172.862045 156.783539,172.478119 159.561798,171.914856 
	C192.316025,171.821426 224.662231,171.795975 257.470154,171.801331 
	C257.931854,171.832153 257.862579,172.005920 257.930969,172.530914 
	C258.058319,195.711243 258.117340,218.366577 258.111755,241.473572 
	C258.090302,252.276154 258.133423,262.627075 258.176544,272.977997 
	C258.111023,295.747253 258.045502,318.516541 257.907257,341.767090 
z"/>
<path fill="#00BCFF" opacity="1.000000" stroke="none" 
	d="
M258.504211,273.185699 
	C258.133423,262.627075 258.090302,252.276154 258.441315,241.262482 
	C258.901337,239.441254 258.747986,238.218628 259.065552,237.133835 
	C265.082947,216.578415 275.552063,199.172760 293.566254,186.683395 
	C304.109222,179.373886 315.724304,175.110596 327.999420,172.166641 
	C335.690460,172.104050 343.381470,172.041473 351.536194,171.906281 
	C368.468384,173.321976 383.064209,179.305222 396.097717,189.526489 
	C413.593567,203.247284 424.079437,221.278976 427.725342,242.843719 
	C431.196045,263.372162 427.456482,282.947723 416.538086,301.078918 
	C405.069641,320.123596 388.958557,332.867096 367.637665,339.073425 
	C339.605225,347.233337 313.854828,342.394135 290.584351,325.003632 
	C273.266724,312.061859 262.914886,294.597015 258.504211,273.185699 
z"/>
<path fill="#000000" opacity="1.000000" stroke="none" 
	d="
M327.535583,172.094879 
	C315.724304,175.110596 304.109222,179.373886 293.566254,186.683395 
	C275.552063,199.172760 265.082947,216.578415 259.065552,237.133835 
	C258.747986,238.218628 258.901337,239.441254 258.505920,240.810806 
	C258.117340,218.366577 258.058319,195.711243 257.997650,172.596497 
	C281.021240,172.099075 304.046509,172.061096 327.535583,172.094879 
z"/>
</svg>