<svg version="1.1" id="Layer_1" xmlns="http://www.w3.org/2000/svg" xmlns:xlink="http://www.w3.org/1999/xlink" x="0px" y="0px"
	 width="100%" viewBox="0 0 512 512" enable-background="new 0 0 512 512" xml:space="preserve">
<path fill="#000000" opacity="1.000000" stroke="none" 
	d="
M249.000000,513.000000 
	C166.350830,513.000000 83.701660,513.000000 1.026245,513.000000 
	C1.026245,342.386963 1.026245,171.773911 1.026245,1.080429 
	C171.576889,1.080429 342.153839,1.080429 512.865356,1.080429 
	C512.865356,171.666611 512.865356,342.333282 512.871521,513.000000 
	C430.228455,513.000000 347.579254,513.000000 264.222626,512.643555 
	C264.181305,511.866730 264.794800,511.253082 265.521484,511.055359 
	C274.467529,508.620789 283.448059,506.312103 292.384674,503.844086 
	C311.377655,498.598785 330.344330,493.258301 349.332489,487.995422 
	C366.906952,483.124298 384.515198,478.372772 402.043457,473.341614 
	C403.606537,472.892914 405.580688,470.922699 405.839142,469.400269 
	C406.881104,463.262024 407.403351,457.029419 407.973511,450.818420 
	C409.356232,435.754608 410.641602,420.681854 411.997772,405.615540 
	C413.309265,391.045349 414.747070,376.485962 415.971375,361.908569 
	C417.404633,344.842499 418.666656,327.762085 420.003845,310.687958 
	C420.363739,306.092560 420.649170,301.489807 421.102997,296.903687 
	C422.364380,284.157593 423.800690,271.428009 424.965820,258.673431 
	C425.820404,249.318314 426.200104,239.919586 427.067749,230.565903 
	C428.600250,214.044586 430.454681,197.552948 431.962585,181.029572 
	C433.144836,168.074371 433.952942,155.085464 435.039856,142.120956 
	C435.450562,137.222458 436.294556,132.361008 436.734253,127.464081 
	C437.510071,118.823402 438.127289,110.168488 438.831268,101.261436 
	C317.529755,101.261436 196.449112,101.261436 75.227432,101.261436 
	C75.844749,109.863495 76.340790,118.205894 77.063560,126.528603 
	C78.300972,140.777466 79.719658,155.010529 80.985207,169.257050 
	C81.743011,177.787872 82.277489,186.338684 83.049225,194.868103 
	C84.307487,208.774658 85.714890,222.667679 86.986687,236.573059 
	C87.751297,244.932892 88.300194,253.312668 89.084801,261.670441 
	C90.328850,274.922272 91.767029,288.156097 92.973206,301.411194 
	C93.794304,310.434509 94.271088,319.488861 95.059532,328.515564 
	C96.303627,342.759094 97.715561,356.987915 98.987411,371.229156 
	C99.749260,379.759705 100.273026,388.312317 101.094452,396.836639 
	C102.307053,409.420410 103.810089,421.976868 104.960083,434.565887 
	C105.829140,444.079529 105.801224,453.710388 107.277451,463.115692 
	C107.858391,466.817017 105.710526,472.506134 112.774017,474.101501 
	C125.937141,477.074585 138.910248,480.901520 151.933441,484.478607 
	C169.965088,489.431366 187.962402,494.508942 205.988815,499.480927 
	C219.163116,503.114624 232.373871,506.617157 245.527054,510.324829 
	C246.832352,510.692780 247.849258,512.083801 249.000000,513.000000 
z"/>
<path fill="#004CE8" opacity="1.000000" stroke="none" 
	d="
M249.466125,513.000000 
	C247.849258,512.083801 246.832352,510.692780 245.527054,510.324829 
	C232.373871,506.617157 219.163116,503.114624 205.988815,499.480927 
	C187.962402,494.508942 169.965088,489.431366 151.933441,484.478607 
	C138.910248,480.901520 125.937141,477.074585 112.774017,474.101501 
	C105.710526,472.506134 107.858391,466.817017 107.277451,463.115692 
	C105.801224,453.710388 105.829140,444.079529 104.960083,434.565887 
	C103.810089,421.976868 102.307053,409.420410 101.094452,396.836639 
	C100.273026,388.312317 99.749260,379.759705 98.987411,371.229156 
	C97.715561,356.987915 96.303627,342.759094 95.059532,328.515564 
	C94.271088,319.488861 93.794304,310.434509 92.973206,301.411194 
	C91.767029,288.156097 90.328850,274.922272 89.084801,261.670441 
	C88.300194,253.312668 87.751297,244.932892 86.986687,236.573059 
	C85.714890,222.667679 84.307487,208.774658 83.049225,194.868103 
	C82.277489,186.338684 81.743011,177.787872 80.985207,169.257050 
	C79.719658,155.010529 78.300972,140.777466 77.063560,126.528603 
	C76.340790,118.205894 75.844749,109.863495 75.227432,101.261436 
	C196.449112,101.261436 317.529755,101.261436 438.831268,101.261436 
	C438.127289,110.168488 437.510071,118.823402 436.734253,127.464081 
	C436.294556,132.361008 435.450562,137.222458 435.039856,142.120956 
	C433.952942,155.085464 433.144836,168.074371 431.962585,181.029572 
	C430.454681,197.552948 428.600250,214.044586 427.067749,230.565903 
	C426.200104,239.919586 425.820404,249.318314 424.965820,258.673431 
	C423.800690,271.428009 422.364380,284.157593 421.102997,296.903687 
	C420.649170,301.489807 420.363739,306.092560 420.003845,310.687958 
	C418.666656,327.762085 417.404633,344.842499 415.971375,361.908569 
	C414.747070,376.485962 413.309265,391.045349 411.997772,405.615540 
	C410.641602,420.681854 409.356232,435.754608 407.973511,450.818420 
	C407.403351,457.029419 406.881104,463.262024 405.839142,469.400269 
	C405.580688,470.922699 403.606537,472.892914 402.043457,473.341614 
	C384.515198,478.372772 366.906952,483.124298 349.332489,487.995422 
	C330.344330,493.258301 311.377655,498.598785 292.384674,503.844086 
	C283.448059,506.312103 274.467529,508.620789 265.521484,511.055359 
	C264.794800,511.253082 264.181305,511.866730 263.757629,512.643555 
	C259.310730,513.000000 254.621490,513.000000 249.466125,513.000000 
M256.999359,315.956177 
	C257.009857,339.579987 257.020386,363.203796 256.258240,386.951630 
	C240.852341,382.820618 225.464447,378.620148 210.024261,374.621490 
	C207.186005,373.886414 206.050995,372.783936 205.836182,369.685150 
	C205.092545,358.957367 203.930954,348.258514 202.926529,337.528046 
	C187.622543,337.528046 172.870819,337.528046 157.790298,337.528046 
	C157.790298,338.775360 157.718506,339.743317 157.800827,340.697968 
	C159.630783,361.920105 161.553345,383.134735 163.245483,404.367737 
	C163.520950,407.824310 165.030334,409.080292 168.164459,409.939148 
	C197.810028,418.062805 227.414856,426.335083 257.010529,435.430847 
	C257.008179,448.924896 257.063965,462.419373 256.966736,475.912720 
	C256.938965,479.767914 257.773285,481.409760 262.192780,480.172668 
	C298.741058,469.941986 335.331512,459.861389 371.935028,449.829559 
	C375.250549,448.920898 377.043915,447.355438 377.351715,443.775085 
	C378.460815,430.874451 379.837006,417.996918 380.965454,405.097809 
	C382.427094,388.389679 383.640625,371.659515 385.155151,354.956421 
	C387.329071,330.980896 389.722931,307.025391 391.939697,283.053650 
	C393.988373,260.899231 395.937592,238.735641 397.912354,216.574463 
	C400.255554,190.278549 402.550507,163.978302 404.942535,137.686859 
	C405.300903,133.747955 404.239166,131.924149 399.844727,131.934662 
	C354.032166,132.044220 308.219147,132.041321 262.406586,131.934418 
	C258.255768,131.924728 256.875244,133.344162 256.933807,137.450104 
	C257.121368,150.608231 257.006836,163.770676 256.095581,177.157074 
	C218.547165,177.157074 180.998749,177.157074 143.100204,177.157074 
	C144.537827,192.795303 145.901047,207.624298 147.298904,222.830200 
	C149.586258,222.830200 151.387497,222.830200 153.188751,222.830200 
	C178.819748,222.830200 204.450775,222.807236 230.081726,222.842667 
	C239.061081,222.855087 248.040222,223.011200 257.013916,224.026093 
	C257.017853,238.973938 257.021790,253.921783 256.102295,269.061249 
	C221.359039,269.061249 186.615799,269.061249 151.319809,269.061249 
	C152.693222,284.514374 154.009979,299.330109 155.374359,314.681671 
	C157.729126,314.681671 159.684814,314.681671 161.640518,314.681671 
	C190.606659,314.681671 219.572830,314.672333 248.538940,314.696533 
	C251.357056,314.698883 254.175018,314.908234 256.999359,315.956177 
z"/>
<path fill="#0165F4" opacity="1.000000" stroke="none" 
	d="
M257.008881,176.931442 
	C257.006836,163.770676 257.121368,150.608231 256.933807,137.450104 
	C256.875244,133.344162 258.255768,131.924728 262.406586,131.934418 
	C308.219147,132.041321 354.032166,132.044220 399.844727,131.934662 
	C404.239166,131.924149 405.300903,133.747955 404.942535,137.686859 
	C402.550507,163.978302 400.255554,190.278549 397.912354,216.574463 
	C395.937592,238.735641 393.988373,260.899231 391.939697,283.053650 
	C389.722931,307.025391 387.329071,330.980896 385.155151,354.956421 
	C383.640625,371.659515 382.427094,388.389679 380.965454,405.097809 
	C379.837006,417.996918 378.460815,430.874451 377.351715,443.775085 
	C377.043915,447.355438 375.250549,448.920898 371.935028,449.829559 
	C335.331512,459.861389 298.741058,469.941986 262.192780,480.172668 
	C257.773285,481.409760 256.938965,479.767914 256.966736,475.912720 
	C257.063965,462.419373 257.008179,448.924896 257.025513,434.858765 
	C257.040527,434.286652 257.015961,434.009674 257.412170,434.045288 
	C288.505798,425.625458 319.203217,417.170044 349.924530,408.708038 
	C356.827942,331.382935 363.685120,254.575943 370.537872,177.818619 
	C369.257751,177.508392 368.785309,177.293304 368.313019,177.293762 
	C331.192352,177.329208 294.071686,177.381561 256.985504,177.309631 
	C257.019989,177.186661 257.008881,176.931442 257.008881,176.931442 
z"/>
<path fill="#E9EAEB" opacity="1.000000" stroke="none" 
	d="
M257.035950,434.425598 
	C227.414856,426.335083 197.810028,418.062805 168.164459,409.939148 
	C165.030334,409.080292 163.520950,407.824310 163.245483,404.367737 
	C161.553345,383.134735 159.630783,361.920105 157.800827,340.697968 
	C157.718506,339.743317 157.790298,338.775360 157.790298,337.528046 
	C172.870819,337.528046 187.622543,337.528046 202.926529,337.528046 
	C203.930954,348.258514 205.092545,358.957367 205.836182,369.685150 
	C206.050995,372.783936 207.186005,373.886414 210.024261,374.621490 
	C225.464447,378.620148 240.852341,382.820618 256.655029,386.989838 
	C257.051788,387.028046 256.961884,387.208405 256.970154,387.663818 
	C256.990967,403.416077 257.003479,418.712860 257.015961,434.009674 
	C257.015961,434.009674 257.040527,434.286652 257.035950,434.425598 
z"/>
<path fill="#E6E8EC" opacity="1.000000" stroke="none" 
	d="
M257.019470,223.101700 
	C248.040222,223.011200 239.061081,222.855087 230.081726,222.842667 
	C204.450775,222.807236 178.819748,222.830200 153.188751,222.830200 
	C151.387497,222.830200 149.586258,222.830200 147.298904,222.830200 
	C145.901047,207.624298 144.537827,192.795303 143.100204,177.157074 
	C180.998749,177.157074 218.547165,177.157074 256.552246,177.044250 
	C257.008881,176.931442 257.019989,177.186661 257.002167,177.750381 
	C256.973999,193.088486 256.963654,207.862869 256.991638,222.750259 
	C257.029968,222.863266 257.019470,223.101700 257.019470,223.101700 
z"/>
<path fill="#E6E8EB" opacity="1.000000" stroke="none" 
	d="
M256.993042,315.021484 
	C254.175018,314.908234 251.357056,314.698883 248.538940,314.696533 
	C219.572830,314.672333 190.606659,314.681671 161.640518,314.681671 
	C159.684814,314.681671 157.729126,314.681671 155.374359,314.681671 
	C154.009979,299.330109 152.693222,284.514374 151.319809,269.061249 
	C186.615799,269.061249 221.359039,269.061249 256.569611,269.076630 
	C257.036926,269.092010 256.956970,269.299774 256.970703,269.749359 
	C256.969727,284.947205 256.955017,299.695435 256.985046,314.585266 
	C257.029755,314.726837 256.993042,315.021484 256.993042,315.021484 
z"/>
<path fill="#0166F4" opacity="1.000000" stroke="none" 
	d="
M257.041351,386.927826 
	C257.020386,363.203796 257.009857,339.579987 256.996216,315.488831 
	C256.993042,315.021484 257.029755,314.726837 257.445496,314.692474 
	C276.096527,314.658112 294.331879,314.658112 312.705444,314.658112 
	C311.040497,333.735413 309.370453,351.956543 307.936188,370.196167 
	C307.694275,373.272644 306.032288,373.969604 303.630341,374.611450 
	C288.063599,378.770874 272.515869,383.001282 256.961884,387.208405 
	C256.961884,387.208405 257.051788,387.028046 257.041351,386.927826 
z"/>
<path fill="#0165F4" opacity="1.000000" stroke="none" 
	d="
M257.031311,268.980835 
	C257.021790,253.921783 257.017853,238.973938 257.016693,223.563904 
	C257.019470,223.101700 257.029968,222.863266 257.455261,222.836472 
	C278.806183,222.809677 299.731781,222.809677 320.823761,222.809677 
	C319.409027,238.605118 318.061676,253.648605 316.675598,269.124481 
	C306.520081,269.124481 296.726685,269.101685 286.933441,269.130859 
	C276.941193,269.160583 266.949127,269.241364 256.956970,269.299774 
	C256.956970,269.299774 257.036926,269.092010 257.031311,268.980835 
z"/>
<path fill="#FEFFFF" opacity="1.000000" stroke="none" 
	d="
M256.970703,269.749359 
	C266.949127,269.241364 276.941193,269.160583 286.933441,269.130859 
	C296.726685,269.101685 306.520081,269.124481 316.675598,269.124481 
	C318.061676,253.648605 319.409027,238.605118 320.823761,222.809677 
	C299.731781,222.809677 278.806183,222.809677 257.416931,222.723465 
	C256.963654,207.862869 256.973999,193.088486 256.967682,177.873352 
	C294.071686,177.381561 331.192352,177.329208 368.313019,177.293762 
	C368.785309,177.293304 369.257751,177.508392 370.537872,177.818619 
	C363.685120,254.575943 356.827942,331.382935 349.924530,408.708038 
	C319.203217,417.170044 288.505798,425.625458 257.412170,434.045288 
	C257.003479,418.712860 256.990967,403.416077 256.970154,387.663818 
	C272.515869,383.001282 288.063599,378.770874 303.630341,374.611450 
	C306.032288,373.969604 307.694275,373.272644 307.936188,370.196167 
	C309.370453,351.956543 311.040497,333.735413 312.705444,314.658112 
	C294.331879,314.658112 276.096527,314.658112 257.400757,314.550903 
	C256.955017,299.695435 256.969727,284.947205 256.970703,269.749359 
z"/>
</svg>