<svg version="1.1" id="Layer_1" xmlns="http://www.w3.org/2000/svg" xmlns:xlink="http://www.w3.org/1999/xlink" x="0px" y="0px"
	 width="100%" viewBox="0 0 512 512" enable-background="new 0 0 512 512" xml:space="preserve">
<path fill="#040300" opacity="1.000000" stroke="none" 
	d="
M28.000000,1.000000 
	C180.024078,1.000000 332.048157,1.000000 484.617188,1.341591 
	C489.788727,4.233617 492.184479,8.332237 491.728699,13.420316 
	C490.732635,24.539948 489.143555,35.604935 487.992401,46.712528 
	C485.904449,66.859482 483.950623,87.020378 481.957062,107.177063 
	C479.935364,127.617958 477.945618,148.062012 475.918640,168.502396 
	C474.273071,185.096222 472.594696,201.686783 470.928131,218.278519 
	C469.266724,234.818497 467.593353,251.357285 465.940765,267.898132 
	C463.927856,288.045715 461.938110,308.195648 459.925140,328.343231 
	C458.272644,344.882751 456.539795,361.414520 454.953888,377.960388 
	C453.177521,396.493195 451.324066,415.022583 449.907990,433.584259 
	C449.221802,442.578644 445.745483,448.346375 436.559296,450.993256 
	C426.893951,453.778229 417.553345,457.711426 408.116455,461.264069 
	C376.918976,473.008820 345.743347,484.811768 314.556702,496.585266 
	C300.040955,502.065216 285.519104,507.528931 271.000000,513.000000 
	C268.299896,513.000000 265.599762,513.000000 262.351868,512.626587 
	C251.478088,508.795624 241.157532,505.321747 230.825195,501.883240 
	C178.675507,484.528412 126.520821,467.188599 74.374084,449.824890 
	C69.306427,448.137482 64.947075,445.360321 64.257805,439.619476 
	C62.981571,428.990021 62.122517,418.309814 61.131641,407.646851 
	C60.063927,396.156982 59.119312,384.655243 57.985538,373.172058 
	C56.417088,357.286316 54.696674,341.415619 53.092243,325.533325 
	C52.330189,317.989716 51.756897,310.426788 50.971935,302.885742 
	C49.746067,291.109070 48.329792,279.351929 47.148941,267.570984 
	C45.998142,256.089844 45.120064,244.581467 43.980762,233.099075 
	C42.421059,217.379745 40.696281,201.676865 39.105095,185.960556 
	C38.324684,178.252365 37.757957,170.522446 36.966389,162.815521 
	C35.739822,150.873291 34.332169,138.949493 33.134560,127.004509 
	C32.000126,115.689644 31.109329,104.350403 29.981434,93.034836 
	C28.414797,77.317612 26.756378,61.609318 25.078922,45.903431 
	C24.188707,37.568436 22.869570,29.267048 22.310659,20.912582 
	C21.830444,13.734403 20.055832,5.892965 28.000000,1.000000 
M160.500061,22.265955 
	C122.047432,22.265955 83.594803,22.265955 44.656643,22.265955 
	C44.874241,25.449055 44.980331,28.084162 45.244541,30.703321 
	C49.105179,68.974129 53.030361,107.238464 56.852364,145.513107 
	C61.352829,190.582031 65.726845,235.663559 70.231796,280.732025 
	C75.067970,329.114166 80.054573,377.481476 84.755257,425.876617 
	C85.113289,429.562653 86.491302,430.909515 89.708328,431.976990 
	C147.432938,451.131409 205.112183,470.422729 262.859894,489.506958 
	C265.402527,490.347229 268.786743,490.253174 271.304535,489.317657 
	C318.668915,471.718262 365.848419,453.613251 413.357849,436.418793 
	C423.737427,432.662262 429.075592,428.576813 429.836121,416.308929 
	C431.812897,384.421692 435.818787,352.660553 439.001129,320.847717 
	C441.818909,292.679352 444.609467,264.508270 447.427612,236.339966 
	C450.610413,204.526840 453.810059,172.715393 457.003235,140.903305 
	C459.863770,112.404846 462.733521,83.907310 465.582581,55.407719 
	C466.670654,44.523643 467.712616,33.634964 468.822723,22.266035 
	C366.079315,22.266035 263.789703,22.266035 160.500061,22.265955 
z"/>
<path fill="#FFFFFF" opacity="1.000000" stroke="none" 
	d="
M27.531338,1.000000 
	C20.055832,5.892965 21.830444,13.734403 22.310659,20.912582 
	C22.869570,29.267048 24.188707,37.568436 25.078922,45.903431 
	C26.756378,61.609318 28.414797,77.317612 29.981434,93.034836 
	C31.109329,104.350403 32.000126,115.689644 33.134560,127.004509 
	C34.332169,138.949493 35.739822,150.873291 36.966389,162.815521 
	C37.757957,170.522446 38.324684,178.252365 39.105095,185.960556 
	C40.696281,201.676865 42.421059,217.379745 43.980762,233.099075 
	C45.120064,244.581467 45.998142,256.089844 47.148941,267.570984 
	C48.329792,279.351929 49.746067,291.109070 50.971935,302.885742 
	C51.756897,310.426788 52.330189,317.989716 53.092243,325.533325 
	C54.696674,341.415619 56.417088,357.286316 57.985538,373.172058 
	C59.119312,384.655243 60.063927,396.156982 61.131641,407.646851 
	C62.122517,418.309814 62.981571,428.990021 64.257805,439.619476 
	C64.947075,445.360321 69.306427,448.137482 74.374084,449.824890 
	C126.520821,467.188599 178.675507,484.528412 230.825195,501.883240 
	C241.157532,505.321747 251.478088,508.795624 261.902039,512.626587 
	C175.047592,513.000000 88.095184,513.000000 1.071390,513.000000 
	C1.071390,342.333344 1.071390,171.666672 1.074123,1.000005 
	C9.738795,1.000000 18.400736,1.000000 27.531338,1.000000 
z"/>
<path fill="#FFFFFF" opacity="1.000000" stroke="none" 
	d="
M271.468658,513.000000 
	C285.519104,507.528931 300.040955,502.065216 314.556702,496.585266 
	C345.743347,484.811768 376.918976,473.008820 408.116455,461.264069 
	C417.553345,457.711426 426.893951,453.778229 436.559296,450.993256 
	C445.745483,448.346375 449.221802,442.578644 449.907990,433.584259 
	C451.324066,415.022583 453.177521,396.493195 454.953888,377.960388 
	C456.539795,361.414520 458.272644,344.882751 459.925140,328.343231 
	C461.938110,308.195648 463.927856,288.045715 465.940765,267.898132 
	C467.593353,251.357285 469.266724,234.818497 470.928131,218.278519 
	C472.594696,201.686783 474.273071,185.096222 475.918640,168.502396 
	C477.945618,148.062012 479.935364,127.617958 481.957062,107.177063 
	C483.950623,87.020378 485.904449,66.859482 487.992401,46.712528 
	C489.143555,35.604935 490.732635,24.539948 491.728699,13.420316 
	C492.184479,8.332237 489.788727,4.233617 485.081055,1.341591 
	C494.328094,1.000000 503.656219,1.000000 512.988281,1.000000 
	C512.992188,171.565964 512.992188,342.131927 512.992188,513.000000 
	C432.646027,513.000000 352.291656,513.000000 271.468658,513.000000 
z"/>
<path fill="#FEC007" opacity="1.000000" stroke="none" 
	d="
M161.000061,22.265995 
	C263.789703,22.266035 366.079315,22.266035 468.822723,22.266035 
	C467.712616,33.634964 466.670654,44.523643 465.582581,55.407719 
	C462.733521,83.907310 459.863770,112.404846 457.003235,140.903305 
	C453.810059,172.715393 450.610413,204.526840 447.427612,236.339966 
	C444.609467,264.508270 441.818909,292.679352 439.001129,320.847717 
	C435.818787,352.660553 431.812897,384.421692 429.836121,416.308929 
	C429.075592,428.576813 423.737427,432.662262 413.357849,436.418793 
	C365.848419,453.613251 318.668915,471.718262 271.304535,489.317657 
	C268.786743,490.253174 265.402527,490.347229 262.859894,489.506958 
	C205.112183,470.422729 147.432938,451.131409 89.708328,431.976990 
	C86.491302,430.909515 85.113289,429.562653 84.755257,425.876617 
	C80.054573,377.481476 75.067970,329.114166 70.231796,280.732025 
	C65.726845,235.663559 61.352829,190.582031 56.852364,145.513107 
	C53.030361,107.238464 49.105179,68.974129 45.244541,30.703321 
	C44.980331,28.084162 44.874241,25.449055 44.656643,22.265955 
	C83.594803,22.265955 122.047432,22.265955 161.000061,22.265995 
M310.541382,235.740631 
	C306.927277,235.740631 303.313171,235.740631 299.500366,235.740631 
	C299.500366,199.881332 299.500366,164.647919 299.500366,129.208069 
	C326.871094,129.208069 353.967804,129.208069 381.397003,129.208069 
	C381.041779,130.913696 380.783417,132.372574 380.431396,133.808487 
	C378.411896,142.046158 376.212677,150.243713 374.390228,158.524384 
	C373.131653,164.242981 376.479218,169.626541 381.666962,171.046310 
	C387.188904,172.557526 392.340210,169.963623 394.600739,164.474152 
	C395.104980,163.249680 395.485657,161.963287 395.807617,160.676453 
	C398.874664,148.416626 401.951355,136.159027 404.955658,123.883728 
	C407.615997,113.013611 403.446075,107.753120 392.184326,107.747215 
	C358.852783,107.729752 325.521271,107.731056 292.189728,107.746368 
	C281.556671,107.751251 278.004761,111.270966 278.002411,121.762169 
	C277.993408,162.093323 277.994354,202.424469 278.001678,242.755615 
	C278.003571,253.232590 281.704865,256.990936 292.035004,256.997375 
	C313.200531,257.010559 334.366058,257.001343 355.531586,257.001373 
	C357.311005,257.001373 359.090424,257.001343 360.973999,257.001343 
	C360.902039,258.189453 360.930481,258.862671 360.812134,259.509003 
	C355.297974,289.622070 349.615509,319.705963 344.410553,349.872253 
	C343.614899,354.483490 341.654724,356.180542 337.613007,357.479218 
	C321.001038,362.816711 304.439026,368.322296 287.978424,374.106903 
	C284.879791,375.195801 281.678101,377.334229 279.681061,379.891785 
	C276.876160,383.483948 277.609802,387.801544 280.333130,391.489075 
	C283.235291,395.418762 287.873260,396.470184 293.902039,394.478668 
	C313.951294,387.855591 333.945160,381.063141 354.027618,374.543060 
	C359.814697,372.664185 362.655090,368.927521 363.696930,363.128754 
	C370.404846,325.792450 377.271210,288.484558 383.947968,251.142746 
	C385.890106,240.280731 381.944946,235.762909 371.027588,235.748260 
	C351.195374,235.721649 331.363068,235.740601 310.541382,235.740631 
M131.503540,129.007248 
	C165.940277,129.007248 200.377029,129.007248 234.923584,129.007248 
	C234.923584,209.710373 234.923584,289.907562 234.923584,370.132172 
	C234.145615,370.132172 233.621811,370.244446 233.165833,370.115997 
	C216.369781,365.384155 199.561279,360.693420 182.827225,355.750824 
	C181.574661,355.380890 180.299042,353.307190 179.983963,351.823761 
	C177.185486,338.649017 174.636230,325.421631 171.922348,312.228485 
	C171.423553,309.803680 170.827362,307.305603 169.726868,305.117584 
	C167.526855,300.743622 161.949448,298.780304 157.280182,300.369507 
	C151.871658,302.210358 149.162109,307.299438 150.406891,313.647980 
	C153.638641,330.130524 157.044006,346.579651 160.173782,363.081238 
	C161.405838,369.577179 164.985107,373.139587 171.343567,374.893738 
	C194.253403,381.213928 217.082993,387.825012 239.942841,394.326385 
	C251.037659,397.481750 256.748291,393.296295 256.750214,381.887207 
	C256.765015,295.257294 256.762726,208.627380 256.750641,121.997475 
	C256.749146,111.400604 253.005402,107.741623 242.247955,107.736137 
	C218.091537,107.723824 193.935120,107.731606 169.778702,107.732475 
	C152.952515,107.733078 136.125809,107.658745 119.300385,107.773613 
	C112.084732,107.822884 107.265533,112.317116 107.335419,118.446838 
	C107.405594,124.601357 112.246330,128.833282 119.510925,128.992004 
	C123.174294,129.072037 126.840843,129.006805 131.503540,129.007248 
z"/>
<path fill="#020100" opacity="1.000000" stroke="none" 
	d="
M311.036102,235.740585 
	C331.363068,235.740601 351.195374,235.721649 371.027588,235.748260 
	C381.944946,235.762909 385.890106,240.280731 383.947968,251.142746 
	C377.271210,288.484558 370.404846,325.792450 363.696930,363.128754 
	C362.655090,368.927521 359.814697,372.664185 354.027618,374.543060 
	C333.945160,381.063141 313.951294,387.855591 293.902039,394.478668 
	C287.873260,396.470184 283.235291,395.418762 280.333130,391.489075 
	C277.609802,387.801544 276.876160,383.483948 279.681061,379.891785 
	C281.678101,377.334229 284.879791,375.195801 287.978424,374.106903 
	C304.439026,368.322296 321.001038,362.816711 337.613007,357.479218 
	C341.654724,356.180542 343.614899,354.483490 344.410553,349.872253 
	C349.615509,319.705963 355.297974,289.622070 360.812134,259.509003 
	C360.930481,258.862671 360.902039,258.189453 360.973999,257.001343 
	C359.090424,257.001343 357.311005,257.001373 355.531586,257.001373 
	C334.366058,257.001343 313.200531,257.010559 292.035004,256.997375 
	C281.704865,256.990936 278.003571,253.232590 278.001678,242.755615 
	C277.994354,202.424469 277.993408,162.093323 278.002411,121.762169 
	C278.004761,111.270966 281.556671,107.751251 292.189728,107.746368 
	C325.521271,107.731056 358.852783,107.729752 392.184326,107.747215 
	C403.446075,107.753120 407.615997,113.013611 404.955658,123.883728 
	C401.951355,136.159027 398.874664,148.416626 395.807617,160.676453 
	C395.485657,161.963287 395.104980,163.249680 394.600739,164.474152 
	C392.340210,169.963623 387.188904,172.557526 381.666962,171.046310 
	C376.479218,169.626541 373.131653,164.242981 374.390228,158.524384 
	C376.212677,150.243713 378.411896,142.046158 380.431396,133.808487 
	C380.783417,132.372574 381.041779,130.913696 381.397003,129.208069 
	C353.967804,129.208069 326.871094,129.208069 299.500366,129.208069 
	C299.500366,164.647919 299.500366,199.881332 299.500366,235.740631 
	C303.313171,235.740631 306.927277,235.740631 311.036102,235.740585 
z"/>
<path fill="#050400" opacity="1.000000" stroke="none" 
	d="
M131.004745,129.007248 
	C126.840843,129.006805 123.174294,129.072037 119.510925,128.992004 
	C112.246330,128.833282 107.405594,124.601357 107.335419,118.446838 
	C107.265533,112.317116 112.084732,107.822884 119.300385,107.773613 
	C136.125809,107.658745 152.952515,107.733078 169.778702,107.732475 
	C193.935120,107.731606 218.091537,107.723824 242.247955,107.736137 
	C253.005402,107.741623 256.749146,111.400604 256.750641,121.997475 
	C256.762726,208.627380 256.765015,295.257294 256.750214,381.887207 
	C256.748291,393.296295 251.037659,397.481750 239.942841,394.326385 
	C217.082993,387.825012 194.253403,381.213928 171.343567,374.893738 
	C164.985107,373.139587 161.405838,369.577179 160.173782,363.081238 
	C157.044006,346.579651 153.638641,330.130524 150.406891,313.647980 
	C149.162109,307.299438 151.871658,302.210358 157.280182,300.369507 
	C161.949448,298.780304 167.526855,300.743622 169.726868,305.117584 
	C170.827362,307.305603 171.423553,309.803680 171.922348,312.228485 
	C174.636230,325.421631 177.185486,338.649017 179.983963,351.823761 
	C180.299042,353.307190 181.574661,355.380890 182.827225,355.750824 
	C199.561279,360.693420 216.369781,365.384155 233.165833,370.115997 
	C233.621811,370.244446 234.145615,370.132172 234.923584,370.132172 
	C234.923584,289.907562 234.923584,209.710373 234.923584,129.007248 
	C200.377029,129.007248 165.940277,129.007248 131.004745,129.007248 
z"/>
</svg>