<svg version="1.1" id="Layer_1" xmlns="http://www.w3.org/2000/svg" xmlns:xlink="http://www.w3.org/1999/xlink" x="0px" y="0px"
	 width="100%" viewBox="0 0 512 512" enable-background="new 0 0 512 512" xml:space="preserve">
<path fill="#B7E0F6" opacity="1.000000" stroke="none" 
	d="
M513.000000,121.000000 
	C513.000000,248.354233 513.000000,375.708466 512.726074,503.723175 
	C509.634705,507.255768 506.817352,510.127869 504.000000,513.000000 
	C442.312439,513.000000 380.624878,513.000000 318.468628,512.531372 
	C317.992950,492.096405 317.985931,472.130096 318.445862,452.104675 
	C328.574829,452.030029 338.236938,452.038147 347.898804,451.994507 
	C373.052948,451.880890 392.955444,432.103271 392.980011,406.988037 
	C393.038635,347.015503 393.036652,287.042816 392.981079,227.070251 
	C392.957794,201.929550 373.086182,182.136292 347.957123,182.000870 
	C337.964386,181.947021 327.971680,181.891129 317.985046,181.377823 
	C317.994080,120.946320 317.997040,60.973160 318.000000,1.000000 
	C342.687561,1.000000 367.375122,1.000000 392.531342,1.468657 
	C393.000000,36.051323 392.993439,70.165329 393.003876,104.279335 
	C393.007111,114.880142 399.094940,120.992188 409.659515,120.995674 
	C444.106354,121.007042 478.553162,120.999969 513.000000,121.000000 
z"/>
<path fill="#CAE8F9" opacity="1.000000" stroke="none" 
	d="
M317.531342,1.000000 
	C317.997040,60.973160 317.994080,120.946320 317.521301,181.439301 
	C310.575592,181.972656 304.099701,181.988495 297.623779,181.999344 
	C264.083832,182.055481 230.543900,182.110352 196.538666,182.104538 
	C171.033646,181.976181 145.993927,181.908966 120.967911,181.383194 
	C120.987755,127.200722 121.149467,73.475883 120.836197,19.753820 
	C120.787895,11.470138 122.696442,5.185563 130.000000,1.000000 
	C192.354233,1.000000 254.708450,1.000000 317.531342,1.000000 
z"/>
<path fill="#FFFFFF" opacity="1.000000" stroke="none" 
	d="
M129.531342,1.000000 
	C122.696442,5.185563 120.787895,11.470138 120.836197,19.753820 
	C121.149467,73.475883 120.987755,127.200722 120.506035,181.447037 
	C94.058586,181.979614 68.084038,181.771500 42.116028,182.092682 
	C29.252325,182.251770 18.646469,188.140015 11.089193,198.369263 
	C6.933657,203.994034 4.312795,210.752609 1.000001,217.000000 
	C1.000000,145.091370 1.000000,73.182739 1.000000,1.000000 
	C43.687168,1.000000 86.374924,1.000000 129.531342,1.000000 
z"/>
<path fill="#1DE8F1" opacity="1.000000" stroke="none" 
	d="
M1.000001,217.468658 
	C4.312795,210.752609 6.933657,203.994034 11.089193,198.369263 
	C18.646469,188.140015 29.252325,182.251770 42.116028,182.092682 
	C68.084038,181.771500 94.058586,181.979614 120.492325,181.905579 
	C145.993927,181.908966 171.033646,181.976181 196.537521,182.561340 
	C197.014282,192.657761 197.026901,202.236252 196.572769,211.884338 
	C146.961349,211.969193 97.816673,211.978500 48.671997,212.003937 
	C36.618458,212.010178 31.005840,217.650238 31.003883,229.760620 
	C30.994495,287.901550 30.994730,346.042511 31.003620,404.183441 
	C31.005507,416.523773 36.577461,421.995728 49.115841,421.997559 
	C95.262093,422.004303 141.408340,421.996674 187.554596,422.008270 
	C190.716202,422.009064 193.877792,422.123596 197.027954,422.642151 
	C197.012329,432.677521 197.008148,442.255920 196.538666,451.895477 
	C171.032990,452.023712 145.992615,452.090820 120.490479,452.094299 
	C94.057198,452.020416 68.082977,452.228638 42.115314,451.907288 
	C29.251932,451.748138 18.645826,445.860565 11.089079,435.630554 
	C6.933936,430.005463 4.312768,423.247314 0.999998,417.000000 
	C1.000000,350.645782 1.000000,284.291534 1.000001,217.468658 
z"/>
<path fill="#CAE8F9" opacity="1.000000" stroke="none" 
	d="
M120.952240,452.157959 
	C145.992615,452.090820 171.032990,452.023712 197.003510,451.957703 
	C204.077316,451.972534 210.220993,451.989471 216.364670,451.999573 
	C250.236099,452.055237 284.107513,452.109253 317.978943,452.163818 
	C317.985931,472.130096 317.992950,492.096405 318.000000,512.531372 
	C255.645767,513.000000 193.291550,513.000000 130.266510,512.733887 
	C123.102203,508.904572 120.628036,503.593658 120.862167,496.067566 
	C121.317093,481.444244 120.968163,466.795929 120.952240,452.157959 
z"/>
<path fill="#CAE8F9" opacity="1.000000" stroke="none" 
	d="
M513.000000,120.531601 
	C478.553162,120.999969 444.106354,121.007042 409.659515,120.995674 
	C399.094940,120.992188 393.007111,114.880142 393.003876,104.279335 
	C392.993439,70.165329 393.000000,36.051323 393.000000,1.468657 
	C399.687653,1.000000 406.375275,1.000000 413.731384,1.264909 
	C418.059845,4.646532 421.945312,7.536545 425.343811,10.916232 
	C449.788849,35.225960 474.206940,59.563919 498.455505,84.069122 
	C503.675720,89.344597 508.170868,95.337547 513.000000,101.000000 
	C513.000000,107.354401 513.000000,113.708794 513.000000,120.531601 
z"/>
<path fill="#FFFFFF" opacity="1.000000" stroke="none" 
	d="
M120.490479,452.094299 
	C120.968163,466.795929 121.317093,481.444244 120.862167,496.067566 
	C120.628036,503.593658 123.102203,508.904572 129.797852,512.733887 
	C87.083755,513.000000 44.167519,513.000000 1.000000,513.000000 
	C1.000000,481.312897 1.000000,449.625092 0.999998,417.468658 
	C4.312768,423.247314 6.933936,430.005463 11.089079,435.630554 
	C18.645826,445.860565 29.251932,451.748138 42.115314,451.907288 
	C68.082977,452.228638 94.057198,452.020416 120.490479,452.094299 
z"/>
<path fill="#FFFFFF" opacity="1.000000" stroke="none" 
	d="
M513.000000,100.531342 
	C508.170868,95.337547 503.675720,89.344597 498.455505,84.069122 
	C474.206940,59.563919 449.788849,35.225960 425.343811,10.916232 
	C421.945312,7.536545 418.059845,4.646532 414.199921,1.264909 
	C446.927307,1.000000 479.854614,1.000000 513.000000,1.000000 
	C513.000000,34.020573 513.000000,67.041626 513.000000,100.531342 
z"/>
<path fill="#FFFFFF" opacity="1.000000" stroke="none" 
	d="
M504.491028,513.000000 
	C506.817352,510.127869 509.634705,507.255768 512.726074,504.191833 
	C513.000000,506.917358 513.000000,509.834717 513.000000,513.000000 
	C510.329987,513.000000 507.656067,513.000000 504.491028,513.000000 
z"/>
<path fill="#1BD9DE" opacity="1.000000" stroke="none" 
	d="
M318.445892,452.104675 
	C284.107513,452.109253 250.236099,452.055237 216.364670,451.999573 
	C210.220993,451.989471 204.077316,451.972534 197.468796,451.896545 
	C197.008148,442.255920 197.012329,432.677521 197.005676,422.548157 
	C196.994827,421.997253 196.949707,421.809387 197.417023,421.880676 
	C247.031479,421.968292 296.178650,421.992004 345.325806,421.995636 
	C357.381073,421.996521 362.994720,416.351105 362.996674,404.242676 
	C363.006012,346.098816 363.005646,287.954956 362.997009,229.811111 
	C362.995209,217.661133 357.407745,212.007278 345.379608,212.004166 
	C297.398438,211.991745 249.417252,211.997269 201.436066,212.007034 
	C199.940506,212.007339 198.444992,212.126770 196.972122,212.096710 
	C196.994797,212.002762 197.039505,211.814743 197.039505,211.814743 
	C197.026901,202.236252 197.014282,192.657761 197.002823,182.622467 
	C230.543900,182.110352 264.083832,182.055481 297.623779,181.999344 
	C304.099701,181.988495 310.575592,181.972656 317.515228,181.897644 
	C327.971680,181.891129 337.964386,181.947021 347.957123,182.000870 
	C373.086182,182.136292 392.957794,201.929550 392.981079,227.070251 
	C393.036652,287.042816 393.038635,347.015503 392.980011,406.988037 
	C392.955444,432.103271 373.052948,451.880890 347.898804,451.994507 
	C338.236938,452.038147 328.574829,452.030029 318.445892,452.104675 
z"/>
<path fill="#08469C" opacity="1.000000" stroke="none" 
	d="
M197.017105,422.091248 
	C193.877792,422.123596 190.716202,422.009064 187.554596,422.008270 
	C141.408340,421.996674 95.262093,422.004303 49.115841,421.997559 
	C36.577461,421.995728 31.005507,416.523773 31.003620,404.183441 
	C30.994730,346.042511 30.994495,287.901550 31.003883,229.760620 
	C31.005840,217.650238 36.618458,212.010178 48.671997,212.003937 
	C97.816673,211.978500 146.961349,211.969193 196.572769,211.884338 
	C197.039505,211.814743 196.994797,212.002762 196.986542,212.551956 
	C196.968750,282.670563 196.959229,352.239960 196.949707,421.809387 
	C196.949707,421.809387 196.994827,421.997253 197.017105,422.091248 
M90.998817,291.500000 
	C90.999168,319.484497 90.973106,347.469025 91.014175,375.453461 
	C91.028549,385.250702 97.163986,391.944183 105.953964,391.971161 
	C114.758614,391.998169 120.941818,385.309174 120.986061,375.545502 
	C121.043419,362.886108 121.000816,350.226257 121.001228,337.566620 
	C121.001282,335.814850 121.001236,334.063110 121.001236,332.000732 
	C125.767708,332.000732 129.784485,332.338470 133.721100,331.920746 
	C139.471298,331.310547 145.365433,330.810303 150.844376,329.117767 
	C169.349060,323.401337 182.608368,303.262909 180.838974,284.374390 
	C178.783005,262.426483 163.393448,245.068893 142.889999,242.964233 
	C131.177612,241.761963 119.291222,242.130081 107.481285,242.040619 
	C97.174347,241.962524 91.067535,248.190277 91.012474,258.517822 
	C90.955627,269.178253 90.999184,279.839264 90.998817,291.500000 
z"/>
<path fill="#063E8B" opacity="1.000000" stroke="none" 
	d="
M197.417023,421.880676 
	C196.959229,352.239960 196.968750,282.670563 196.963867,212.645905 
	C198.444992,212.126770 199.940506,212.007339 201.436066,212.007034 
	C249.417252,211.997269 297.398438,211.991745 345.379608,212.004166 
	C357.407745,212.007278 362.995209,217.661133 362.997009,229.811111 
	C363.005646,287.954956 363.006012,346.098816 362.996674,404.242676 
	C362.994720,416.351105 357.381073,421.996521 345.325806,421.995636 
	C296.178650,421.992004 247.031479,421.968292 197.417023,421.880676 
M277.490906,241.998108 
	C268.352081,242.296326 259.133942,241.935272 250.090164,243.023346 
	C227.960648,245.685867 210.228928,269.411102 213.373901,291.352295 
	C216.801834,315.267365 233.082275,330.338104 257.257904,331.975372 
	C266.782593,332.620483 273.126892,338.802307 272.967560,347.282837 
	C272.805054,355.932983 265.980377,361.946167 256.191193,361.989838 
	C246.699402,362.032196 237.203308,361.842346 227.716614,362.068573 
	C219.448532,362.265686 213.146011,368.797821 213.028564,376.777863 
	C212.914627,384.519012 218.927429,391.708099 226.774506,391.810211 
	C239.903275,391.981079 253.144791,392.305237 266.154022,390.878967 
	C288.279022,388.453247 305.808624,364.377014 302.579376,342.399994 
	C299.099548,318.717560 282.863037,303.684082 258.989197,302.039581 
	C249.127014,301.360291 242.729599,295.113861 243.038345,286.465271 
	C243.346283,277.839447 250.145615,272.041931 260.060822,272.008301 
	C269.386200,271.976654 278.714752,272.140747 288.036316,271.947601 
	C296.584412,271.770538 302.987610,265.167511 302.971436,256.970123 
	C302.955261,248.770157 296.544434,242.337646 287.976837,242.026749 
	C284.816864,241.912079 281.649506,242.001678 277.490906,241.998108 
z"/>
<path fill="#1DE7F1" opacity="1.000000" stroke="none" 
	d="
M90.998817,291.000000 
	C90.999184,279.839264 90.955627,269.178253 91.012474,258.517822 
	C91.067535,248.190277 97.174347,241.962524 107.481285,242.040619 
	C119.291222,242.130081 131.177612,241.761963 142.889999,242.964233 
	C163.393448,245.068893 178.783005,262.426483 180.838974,284.374390 
	C182.608368,303.262909 169.349060,323.401337 150.844376,329.117767 
	C145.365433,330.810303 139.471298,331.310547 133.721100,331.920746 
	C129.784485,332.338470 125.767708,332.000732 121.001236,332.000732 
	C121.001236,334.063110 121.001282,335.814850 121.001228,337.566620 
	C121.000816,350.226257 121.043419,362.886108 120.986061,375.545502 
	C120.941818,385.309174 114.758614,391.998169 105.953964,391.971161 
	C97.163986,391.944183 91.028549,385.250702 91.014175,375.453461 
	C90.973106,347.469025 90.999168,319.484497 90.998817,291.000000 
M124.711197,271.999268 
	C121.967834,271.635529 120.714172,272.673859 120.960686,275.588348 
	C121.156487,277.903290 120.997948,280.248108 120.997818,282.579681 
	C120.997475,288.988037 120.997704,295.396423 120.997704,301.979858 
	C126.707130,301.979858 131.537521,302.140503 136.353348,301.944061 
	C144.600067,301.607697 150.891785,295.126953 150.972305,287.150146 
	C151.054840,278.973022 144.649536,272.379456 136.154739,272.034271 
	C132.663010,271.892395 129.161057,272.002502 124.711197,271.999268 
z"/>
<path fill="#1BD8DD" opacity="1.000000" stroke="none" 
	d="
M277.988220,241.998108 
	C281.649506,242.001678 284.816864,241.912079 287.976837,242.026749 
	C296.544434,242.337646 302.955261,248.770157 302.971436,256.970123 
	C302.987610,265.167511 296.584412,271.770538 288.036316,271.947601 
	C278.714752,272.140747 269.386200,271.976654 260.060822,272.008301 
	C250.145615,272.041931 243.346283,277.839447 243.038345,286.465271 
	C242.729599,295.113861 249.127014,301.360291 258.989197,302.039581 
	C282.863037,303.684082 299.099548,318.717560 302.579376,342.399994 
	C305.808624,364.377014 288.279022,388.453247 266.154022,390.878967 
	C253.144791,392.305237 239.903275,391.981079 226.774506,391.810211 
	C218.927429,391.708099 212.914627,384.519012 213.028564,376.777863 
	C213.146011,368.797821 219.448532,362.265686 227.716614,362.068573 
	C237.203308,361.842346 246.699402,362.032196 256.191193,361.989838 
	C265.980377,361.946167 272.805054,355.932983 272.967560,347.282837 
	C273.126892,338.802307 266.782593,332.620483 257.257904,331.975372 
	C233.082275,330.338104 216.801834,315.267365 213.373901,291.352295 
	C210.228928,269.411102 227.960648,245.685867 250.090164,243.023346 
	C259.133942,241.935272 268.352081,242.296326 277.988220,241.998108 
z"/>
<path fill="#08479D" opacity="1.000000" stroke="none" 
	d="
M125.187469,271.998627 
	C129.161057,272.002502 132.663010,271.892395 136.154739,272.034271 
	C144.649536,272.379456 151.054840,278.973022 150.972305,287.150146 
	C150.891785,295.126953 144.600067,301.607697 136.353348,301.944061 
	C131.537521,302.140503 126.707130,301.979858 120.997704,301.979858 
	C120.997704,295.396423 120.997475,288.988037 120.997818,282.579681 
	C120.997948,280.248108 121.156487,277.903290 120.960686,275.588348 
	C120.714172,272.673859 121.967834,271.635529 125.187469,271.998627 
z"/>
</svg>